<svg 
          width="35.74766540527344" 
          height="27.961212158203125" fill="none" 
          xmlns="http://www.w3.org/2000/svg">
          <path d="M 26.7712188058478 0 C 31.728456707660158 0 35.74766540527344 3.9338098691957546 35.74766540527344 8.78571802562698 L 35.74766540527344 19.175494132576144 C 35.74766540527344 24.02740228900737 31.728456707660158 27.961212158203125 26.7712188058478 27.961212158203125 L 8.976445596730628 27.961212158203125 C 4.019208196265775 27.961212158203125 0 24.02740228900737 0 19.175494132576144 L 0 8.78571802562698 C 0 3.9338098691957546 4.019208196265775 0 8.976445596730628 0 L 26.7712188058478 0 Z M 17.86314998999125 9.829297582950355 C 16.837514633342433 9.829297582950355 16.004184523442852 10.644918374834244 16.004184523442852 11.648761448170367 L 16.004184523442852 16.291537332271606 C 16.004184523442852 17.31629384608894 16.837514633342433 18.131914575252768 17.86314998999125 18.131914575252768 C 18.910152714652586 18.131914575252768 19.743479879135574 17.31629384608894 19.743479879135574 16.291537332271606 L 19.743479879135574 11.648761448170367 C 19.743479879135574 10.644918374834244 18.910152714652586 9.829297582950355 17.86314998999125 9.829297582950355 Z" fill="rgb(65.0000037252903,155.00000596046448,149.00000631809235)"/>
        </svg>