<svg 
          width="25.0606689453125" 
          height="28.938446044921875" fill="none" 
          xmlns="http://www.w3.org/2000/svg">
          <path d="M 20.62794863974338 3.5739611578673736 C 20.515287782627656 3.5742451983735064 20.40461511488585 3.5442641113244333 20.307478872586543 3.487146104063669 C 17.634087495723435 2.054696566434284 15.32272990320028 1.4469909807413965 12.551752043828685 1.4469909807413965 C 9.79462913537793 1.4469909807413965 7.176656517723926 2.127042514293023 4.7954227623236605 3.487146104063669 C 4.458688703270741 3.677657074829425 4.043644717341244 3.5450229721108126 3.8484714912057094 3.195350934349189 C 3.7613553603961516 3.026579595084132 3.7417026471551984 2.830946300943631 3.793506242715777 2.64819657508123 C 3.8453098382763558 2.4654468492188295 3.9646842788460925 2.309288343056183 4.127376614494878 2.2114462943506834 C 6.695573558415472 0.7536611866306349 9.599261271465984 -0.008548232047775207 12.551752043828685 0.00007231888134409662 C 15.517300624364935 0.00007231888134473918 18.107562086808162 0.6801238707186736 20.948416735741414 2.1993885666852413 C 21.114160489854456 2.2905964765847666 21.237583260391897 2.443188313531398 21.29220251046674 2.6244256620951227 C 21.346821760541584 2.8056630106588476 21.328285524993806 3.0011067333362864 21.240573730519706 3.1688241007387816 C 21.187839319091783 3.2879005510438892 21.102105259457158 3.3893518794245336 20.993526325212194 3.4611563634652347 C 20.88494739096723 3.5329608475059358 20.75807687947551 3.5721084661131215 20.62794863974338 3.5739611578673736 Z M 0.701604635454763 11.170285264901082 C 0.5569231354303742 11.169256482442226 0.4160443441979719 11.123800501062384 0.2980056327863085 11.040061638860742 C 0.14443181845502392 10.925835084619008 0.0411484926868084 10.756414710053305 0.009911003098450952 10.567485853482996 C -0.02132648648990649 10.378556996912687 0.021920426771937007 10.184869475872272 0.13054226932466745 10.027220041374047 C 1.5094049499236275 8.001533919463261 3.262951969470245 6.409921707635778 5.352630556154833 5.295794382398237 C 9.72475171913172 2.9541976354420876 15.32273011209513 2.937316942150642 19.708706017098006 5.281325276453272 C 21.79778235993028 6.395452601690812 23.551932158622265 7.972594871305503 24.930794839221225 9.983811887271324 C 25.038969633739203 10.141605813170056 25.08194945535153 10.335166992435152 25.05073390625038 10.523963130687958 C 25.019518357149227 10.712759268940765 24.916528456837543 10.882146859194307 24.76333135825623 10.996654321025847 C 24.689002719156463 11.052252287377302 24.6040659165085 11.0919951841272 24.5137755435909 11.113424070263354 C 24.4234851706733 11.13485295639951 24.32976204827088 11.137512284823105 24.23840366779325 11.12123732057221 C 24.14704528731562 11.104962356321314 24.05999432517127 11.070099585410071 23.982637827029542 11.018805383230807 C 23.905281328887813 10.967511181051544 23.83926414585289 10.900877318119276 23.788669767506903 10.823025049686265 C 22.53570592400527 8.999907456339775 20.94841631795171 7.567457082442563 19.0683680999521 6.569083231965614 C 15.0721365078154 4.442112741239201 9.961490163595759 4.442112323105288 5.979112895695349 6.583551919776665 C 4.085209726774897 7.596394980732058 2.4979211651955913 9.043314565107712 1.2449573216939591 10.864020571107723 C 1.1909290645253718 10.959826934855037 1.1117374185991453 11.039011306069897 1.015960624815323 11.092996556050105 C 0.9201838310315007 11.146981806030313 0.8114731689997706 11.173710067486901 0.701604635454763 11.170285264901082 Z M 9.404283205343985 28.63700494395539 C 9.312257542908112 28.637891218699828 9.221116524049787 28.618969877662057 9.137035668049364 28.581523591232422 C 9.052954812048942 28.544077304802787 8.97789771091176 28.488980547080175 8.916951574389921 28.419966682245256 C 7.70555227030853 27.15873587394376 7.0489511579645034 26.34604923153879 6.1182640220715 24.59768917339752 C 5.154445640744312 22.817979106952883 4.656271635947508 20.647601089324617 4.656271635947508 18.31806207003391 C 4.656271635947508 14.020713770746191 8.192882752340921 10.519171316038515 12.537896466223296 10.519171316038515 C 16.88291018010567 10.519171316038515 20.421931525277444 14.020713770746191 20.421931525277444 18.31806207003391 C 20.424671547616107 18.411269332974538 20.40869444941886 18.50407910083024 20.374946895633794 18.590994800773608 C 20.34119934184873 18.677910500716976 20.29036749901811 18.75716579136358 20.225461741032177 18.82406431672978 C 20.160555983046244 18.890962842095977 20.08289697252201 18.944142965425605 19.997082850672175 18.980459780687912 C 19.91126872882234 19.01677659595022 19.81904466197479 19.035491221319884 19.7258738314437 19.035491221319884 C 19.63270300091261 19.035491221319884 19.540480605223863 19.01677659595022 19.454666483374027 18.980459780687912 C 19.36885236152419 18.944142965425605 19.291191679841155 18.890962842095977 19.226285921855222 18.82406431672978 C 19.16138016386929 18.75716579136358 19.110548321038674 18.677910500716976 19.07680076725361 18.590994800773608 C 19.043053213468543 18.50407910083024 19.027077786430095 18.411269332974538 19.029817808768758 18.31806207003391 C 19.029817808768755 14.81651877905841 16.119085325799595 11.9660902732133 12.540909565538518 11.9660902732133 C 8.96273380527744 11.9660902732133 6.048989058572457 14.81651877905841 6.048989058572457 18.31806207003391 C 6.048989058572457 20.40162503385847 6.49415296622714 22.326027414154495 7.343517963731455 23.888699637022917 C 8.235049953403175 25.552656124173485 8.849485118054048 26.261646810416348 9.919925937517792 27.390243346132333 C 10.046872904524585 27.53068293754903 10.117165290390155 27.713311665910194 10.117165290390156 27.902693217775358 C 10.117165290390155 28.092074769640522 10.046872904524585 28.27470349800169 9.919925937517792 28.415143089418386 C 9.783252839354725 28.553158902271687 9.598391511646492 28.632698505196153 9.404283205343985 28.63700494395539 Z M 19.388839538267735 25.96020529131595 C 17.731674291574198 25.96020529131595 16.26968200989763 25.526128506561992 15.072137761184502 24.67244649953578 C 14.051867740062786 23.95672594795411 13.218355824942492 23.006140517924898 12.64178321740532 21.90072710344603 C 12.06521060986815 20.795313688967163 11.762456021131468 19.567434496013256 11.759011128817503 18.320473866447344 C 11.75510522352167 18.226512485926918 11.77022426164301 18.132730354188567 11.803458939403743 18.044766399057238 C 11.836693617164476 17.95680244392591 11.887357293112942 17.876473921123345 11.95240514529257 17.808607709747655 C 12.017452997472198 17.740741498371964 12.095542318331333 17.68674038216974 12.181976407455908 17.649850625445715 C 12.268410496580483 17.61296086872169 12.361405222225127 17.593944448666566 12.455370466814529 17.593944448666566 C 12.54933571140393 17.593944448666566 12.642329601469175 17.61296086872169 12.72876369059375 17.649850625445715 C 12.815197779718325 17.68674038216974 12.893286264998059 17.740741498371964 12.958334117177687 17.808607709747655 C 13.023381969357315 17.876473921123345 13.07404648088518 17.95680244392591 13.107281158645913 18.044766399057238 C 13.140515836406646 18.132730354188567 13.155634874527985 18.226512485926918 13.151728969232153 18.320473866447344 C 13.154068075842078 19.33332779888449 13.400887779235214 20.33062108679531 13.871178708359759 21.227471291324598 C 14.341469637484304 22.124321495853884 15.02130727290643 22.894176224955764 15.852829621252388 23.471505688496713 C 16.84134584958028 24.16602669386048 17.99732514108347 24.49640543178276 19.390042772603266 24.49640543178276 C 19.875092070650833 24.487780283830595 20.35861967416417 24.439388521462288 20.83577060571261 24.351714372333113 C 21.2116597587631 24.27936843754106 21.57369426770706 24.53981384721918 21.642968715496945 24.94495106114799 C 21.67826360565907 25.131919784331618 21.63802815645745 25.325264566229762 21.53108797619824 25.482585974672798 C 21.424147795939028 25.639907383115833 21.25923271463969 25.748361360213817 21.07250863238695 25.784162551027276 C 20.517831129649124 25.893846158698246 19.954210211701746 25.951970972806127 19.388839538267735 25.957793494902514 L 19.388839538267735 25.96020529131595 Z M 16.58954827983305 28.938446044921875 C 16.528386563826096 28.935902107370904 16.467733996375998 28.92618983431434 16.40883250958923 28.909507833031945 C 14.194459782406796 28.272863565048475 12.74632276499334 27.419180199087045 11.228308749123379 25.87097718669707 C 9.278383741562108 23.85976017073125 8.206738329946308 21.18296114529268 8.206738329946308 18.31806207003391 C 8.206738329946308 15.974053735731282 10.128351609603287 14.064121506714999 12.4951281702304 14.064121506714999 C 14.861904730857512 14.064121506714999 16.784117956523456 15.974053735731282 16.784117956523456 18.31806207003391 C 16.784117956523456 19.866265082423887 18.07924994111417 21.125083676178033 19.680393244719465 21.125083676178033 C 21.28153654832476 21.125083676178033 22.57666686175667 19.866265082423887 22.57666686175667 18.31806207003391 C 22.57666686175667 12.86317818687245 18.050938213209875 8.435608352213956 12.481272592625011 8.435608352213956 C 8.526605226566279 8.435608352213956 4.906262265242945 10.72174005366977 3.277409164243398 14.266690662480165 C 2.7352613312748186 15.43869482963148 2.4557538596859105 16.813266689079263 2.4557538596859105 18.31806207003391 C 2.4557538596859105 19.446658605749896 2.5527383072369316 21.22636950846236 3.388248353820408 23.5414394218081 C 3.5280020112792934 23.91763826704676 3.346683579393461 24.3372445346538 2.984649298928241 24.467467219892832 C 2.8986106020588136 24.50025964646446 2.8068361813757154 24.51530714308704 2.7148400840890696 24.511705787947893 C 2.622843986802424 24.508104432808747 2.532524727643857 24.485928580244384 2.449308200196828 24.44651034814501 C 2.3660916727497985 24.40709211604564 2.291695638949077 24.35124486021492 2.2305892343816027 24.282324213109355 C 2.1694828298141284 24.21340356600379 2.122927005809667 24.132830591662014 2.09371944866141 24.045448006004097 C 1.4218579408462926 22.210756256863203 1.07767182199708 20.27209258317725 1.0768913879818005 18.31806207003391 C 1.0768913879818014 16.581759635024603 1.397360946243785 15.002207868732999 2.0238428679946012 13.63004665583039 C 3.8761813930473865 9.590732139674259 7.983855045297959 6.974219870960291 12.481272592625011 6.974219870960291 C 18.81717371408401 6.974219870960291 23.96938553775072 12.052904072615263 23.96938553775072 18.303592964088942 C 23.96938553775072 20.64760129839157 22.04777204919889 22.55753519994351 19.680393244719465 22.55753519994351 C 17.31301444024004 22.55753519994351 15.391400951688208 20.64760129839157 15.391400951688208 18.303592964088942 C 15.392003338186738 16.755389951698966 14.09687309100346 15.494159561531381 12.495729787398165 15.494159561531381 C 10.894586483792871 15.494159561531381 9.599455334781558 16.752978155285533 9.599455334781558 18.30118116767551 C 9.599455334781558 20.773000704404172 10.518697852979505 23.09048230962987 12.203572792619871 24.826784744639177 C 13.528823027776971 26.186888334409822 14.793834255063098 26.93687626687654 16.757011760798044 27.503586069814272 C 17.132900913848534 27.604870373296475 17.341930004819876 28.01000603228979 17.244343391752107 28.386204877528453 C 17.213935100478555 28.538920658513746 17.1325652589925 28.67675879058715 17.013586442420635 28.777103220498454 C 16.89460762584877 28.877447650409756 16.74508464822339 28.93433972284867 16.58954827983305 28.938446044921875 Z" fill="rgb(85.0000025331974,85.0000025331974,85.0000025331974)"/>
        </svg>